<?xml version="1.0" encoding="UTF-8" standalone="no"?><!DOCTYPE svg PUBLIC "-//W3C//DTD SVG 1.1//EN" "http://www.w3.org/Graphics/SVG/1.1/DTD/svg11.dtd"><svg width="100%" height="100%" viewBox="0 0 8446 1875" version="1.1" xmlns="http://www.w3.org/2000/svg" xmlns:xlink="http://www.w3.org/1999/xlink" xml:space="preserve" xmlns:serif="http://www.serif.com/" style="fill-rule:evenodd;clip-rule:evenodd;stroke-linejoin:round;stroke-miterlimit:2;"><g id="Ebene_3"><path d="M455.7,162.972c-96.409,42.252 -185.813,98.963 -265.122,168.173c-164.506,145.902 -212.608,322.792 -181.833,548.582c28.098,176.462 105.161,341.546 222.388,476.402l1.86,2.179l192.038,-1016.9c9.94,-53.152 30.988,-178.431 30.988,-178.431m769.11,168.173c-0,-99.394 -40.608,-203.785 -160.466,-203.785c-137.504,0 -265.122,154.885 -309.717,400.182l-45.87,267.62c45.93,41.769 106.39,64.014 168.439,61.975c196.396,0 349.102,-278.782 349.102,-526.577m382.695,-108.43c-0.885,-1.256 -1.92,-2.398 -3.083,-3.402l0,1.542c3.134,27.563 4.678,55.283 4.624,83.023c0,433.668 -288.031,830.767 -721.379,830.767c-80.299,2.024 -159.907,-15.411 -232.009,-50.814l-4.358,-2.817l-102.212,526.577l4.04,1.861c115.71,61.519 240.113,105.072 368.928,129.159c234.773,33.486 397.099,-19.507 529.66,-174.657c133.518,-150.261 230.149,-395.558 276.391,-691.402c35.612,-287.446 4.624,-502.074 -122.25,-649.199" style="fill:#d4021d;fill-rule:nonzero;"/><path d="M2403.72,605.463c170.353,-0 255.555,89.508 255.555,251.196c0,161.689 -91.528,261.88 -241.629,261.88c-25.756,0.038 -51.362,-3.925 -75.901,-11.746l0,243.755l-150.208,-0l0,-712.237c69.162,-19.387 140.398,-30.415 212.183,-32.848Zm3.083,389.019c64.155,0 100.351,-47.836 100.351,-131.019c0,-83.183 -33.114,-137.239 -108.696,-137.239c-19.308,0.023 -38.477,3.274 -56.713,9.621l0,247.794c20.849,7.544 42.888,11.271 65.058,11.003l0,-0.16Z" style="fill:#008ebd;fill-rule:nonzero;"/><rect x="2725.88" y="382.915" width="150.155" height="721.061" style="fill:#008ebd;fill-rule:nonzero;"/><path d="M3367.95,1076.44c-58.277,27.017 -121.797,40.865 -186.032,40.555c-150.261,-0 -234.507,-90.731 -234.507,-252.738c0,-162.008 84.246,-257.734 234.507,-257.734c126.662,-0 198.257,75.582 198.257,206.602c-0.058,27.222 -2.549,54.384 -7.441,81.163l-288.19,-0c7.441,72.499 39.332,111.619 113.054,111.619c50.417,-1.246 100.094,-12.446 146.168,-32.954l25.407,103.487l-1.223,-0Zm-113.958,-273.839c0,-57.617 -30.987,-88.605 -77.761,-88.605c-46.774,0 -78.984,27.905 -89.508,88.605l167.269,-0Z" style="fill:#008ebd;fill-rule:nonzero;"/><path d="M3758.89,608.705c99.128,-0 154.885,55.437 154.885,177.793l-0,317.478l-151.484,-0l0,-299.193c0,-41.512 -19.188,-63.783 -59.477,-63.783c-37.448,4.46 -72.728,19.99 -101.308,44.595l0,318.434l-150.207,-0l-0,-485.704l143.51,0l0,44.595c48.24,-33.664 105.281,-52.511 164.081,-54.215Z" style="fill:#008ebd;fill-rule:nonzero;"/><path d="M4206.48,1118.54c-121.452,0 -180.717,-56.66 -180.717,-186.032l0,-204.529l-70.48,0l0,-109.653l71.543,0l0,-150.26l150.208,-34.974l-0,184.278l120.176,-0l0,109.652l-120.176,0l-0,199.161c-0,45.87 19.241,66.281 58.467,66.281c21.496,-0.758 42.863,-3.66 63.782,-8.664l21.261,116.19c-36.956,11.532 -75.358,17.777 -114.064,18.55Z" style="fill:#008ebd;fill-rule:nonzero;"/><path d="M4672.57,1107.38c-70.32,174.711 -166.366,221.485 -296.429,232.009l-26.576,-115.818c89.561,-9.621 134.475,-36.25 186.032,-134.422l-201.34,-470.821l166.313,0l110.928,291.752l97.269,-291.752l154.832,0l-191.029,489.052Z" style="fill:#008ebd;fill-rule:nonzero;"/><path d="M5130.32,1014.15c58.786,-0 94.77,-21.846 94.77,-65.112c-0,-63.197 -73.935,-85.043 -146.594,-119.751c-72.659,-34.708 -144.733,-85.947 -144.733,-195.6c0,-123.897 89.136,-191.347 239.184,-191.347c63.776,0.657 126.962,12.308 186.777,34.443l-36.037,120.708c-46.804,-18.496 -96.328,-29.18 -146.594,-31.626c-57.51,0 -84.724,25.939 -84.724,63.198c-0,54.375 63.198,74.891 131.498,104.284c77.071,34.762 159.456,84.725 159.456,208.888c0,132.402 -96.683,198.735 -256.299,198.735c-71.526,0.001 -142.403,-13.618 -208.834,-40.129l42.521,-126.396c53.586,23.632 111.101,37.096 169.609,39.705Z" style="fill:#00485b;fill-rule:nonzero;"/><path d="M5763.46,620.398c100.988,0 158.021,56.554 158.021,181.408l-0,323.856l-154.141,-0l-0,-305.253c-0,-42.521 -19.613,-65.058 -61.019,-65.058c-38.188,4.581 -74.164,20.422 -103.327,45.498l-0,324.813l-153.238,-0l0,-735.625l152.972,0l-0,281.706c47.498,-32.257 103.33,-50.092 160.732,-51.345Z" style="fill:#00485b;fill-rule:nonzero;"/><path d="M6494.25,868.14c-0,168.439 -97.959,270.81 -258.797,270.81c-154.141,-0 -247.742,-97.96 -247.742,-259.754c0,-161.795 97.959,-261.03 259.754,-261.03c154.194,-0 246.785,93.601 246.785,249.974Zm-156.426,7.601c-0,-92.272 -33.805,-140.003 -97.96,-140.003c-64.154,0 -94.77,47.837 -94.77,137.77c0,94.824 33.486,146.913 98.916,146.913c65.43,-0 93.814,-50.229 93.814,-144.68Z" style="fill:#00485b;fill-rule:nonzero;"/><path d="M6768.09,617.262c174.073,0 260.977,91.316 260.977,256.246c-0,164.931 -94.77,265.442 -246.785,265.442c-26.161,0.061 -52.169,-3.993 -77.071,-12.013l0,248.699l-153.29,-0l-0,-726.801c70.541,-19.1 143.112,-29.699 216.169,-31.573Zm3.455,396.887c65.111,-0 102.052,-48.688 102.052,-133.678c0,-84.99 -33.805,-140.002 -110.875,-140.002c-19.585,-0.012 -39.031,3.295 -57.511,9.78l0,252.844c21.28,7.591 43.742,11.334 66.334,11.056Z" style="fill:#00485b;fill-rule:nonzero;"/><path d="M7160.83,384.456c0.91,-0.024 1.821,-0.036 2.731,-0.036c56.917,0 103.753,46.836 103.753,103.753c0,56.917 -46.836,103.753 -103.753,103.753c-55.94,0 -102.325,-45.242 -103.72,-101.166l-0,-2.763c-0.588,-56.06 44.932,-102.729 100.989,-103.541Zm-0,186.033c42.336,-0.461 76.915,-35.418 76.915,-77.757c0,-0.285 -0.001,-0.57 -0.004,-0.855c-0,-0.744 -0,-1.489 -0,-2.233c0.103,-1.619 0.154,-3.241 0.154,-4.863c0,-41.971 -34.536,-76.508 -76.507,-76.508c-40.139,0 -73.802,31.587 -76.353,71.644c-0.212,3.239 -0.212,6.488 -0,9.727c-0.017,0.663 -0.026,1.327 -0.026,1.99c0,41.946 33.94,76.72 75.874,77.738l-0.053,1.117Zm-35.293,-133.199l43.053,-0c16.925,-1.527 32.111,11.139 33.645,28.064c1.111,12.823 -6.278,24.965 -18.178,29.871l3.721,6.219l19.56,37.206l-25.407,0l-17.646,-38.11l-13.342,0l0,39.067l-23.865,0l-1.541,-102.317Zm37.206,48.368c7.792,0.514 14.638,-5.446 15.202,-13.235c0.053,-0.761 0.053,-1.525 -0,-2.285c0.059,-0.524 0.089,-1.05 0.089,-1.576c0,-7.053 -5.359,-13.049 -12.367,-13.839c-0.867,-0.08 -1.739,-0.08 -2.605,0l-12.065,0l-0,30.988l11.746,-0.053Z" style="fill:#00485b;fill-rule:nonzero;"/><path d="M7500.52,354c93.707,0 138.993,37.632 138.993,113.958c-0,74.094 -43.638,114.968 -128.681,114.968c-14.264,0.159 -28.509,-1.105 -42.522,-3.774l0,112.257l-78.452,0l-0,-337.409l110.662,0Zm-1.116,167.323c39.811,-0 59.956,-17.434 59.956,-52.302c-0,-34.867 -21.793,-51.77 -63.783,-51.77l-27.214,0l0,100.989c10.193,2.224 20.61,3.259 31.041,3.083Z" style="fill:#00485b;fill-rule:nonzero;"/><path d="M8037.57,691.409l-80.685,0l-74.413,-228.553l-73.563,228.553l-80.684,0l-71.384,-337.409l82.599,0l40.342,240.407l69.789,-240.407l71.914,0l73.616,239.184l39.279,-239.184l75.742,0l-72.552,337.409Z" style="fill:#00485b;fill-rule:nonzero;"/><path d="M8211.7,616.731l-27.746,74.678l-77.442,0l127.246,-337.409l84.511,0l127.565,337.409l-82.864,0l-28.33,-74.678l-122.94,-0Zm101.786,-59.903l-40.874,-136.334l-39.811,136.334l80.685,0Z" style="fill:#00485b;fill-rule:nonzero;"/></g></svg>